<?xml version="1.0" encoding="utf-8"?>
<svg version="1.1" id="tiktokIcon" xmlns="http://www.w3.org/2000/svg" xmlns:xlink="http://www.w3.org/1999/xlink" x="0px" y="0px" width="21px" height="24px"
	 viewBox="0 0 20.8 24" style="enable-background:new 0 0 20.8 24;" xml:space="preserve">
<path d="M18.2,5.1C18,5,17.9,5,17.7,4.9c-0.4-0.3-0.9-0.6-1.2-1c-0.9-1-1.2-2.1-1.4-2.8h0c-0.1-0.6-0.1-1-0.1-1H11v15.9
	c0,0.2,0,0.4,0,0.6c0,0,0,0,0,0.1c0,0,0,0,0,0c0,0,0,0,0,0c-0.1,1.2-0.7,2.2-1.8,2.8c-0.5,0.3-1.1,0.5-1.7,0.4
	c-1.9,0-3.5-1.6-3.5-3.5s1.6-3.5,3.5-3.5c0.4,0,0.7,0.1,1.1,0.2l0-4.2c-2.1-0.3-4.3,0.4-5.9,1.7C2,11.2,1.4,12,0.9,12.8
	c-0.2,0.3-0.8,1.5-0.9,3.5c0,1.1,0.3,2.3,0.4,2.7v0c0.1,0.3,0.5,1.2,1.1,2c0.5,0.6,1.1,1.2,1.8,1.7v0l0,0c2,1.4,4.2,1.3,4.2,1.3
	c0.4,0,1.7,0,3.1-0.7c1.6-0.8,2.5-1.9,2.5-1.9c0.6-0.7,1.1-1.5,1.4-2.3c0.4-1,0.5-2.2,0.5-2.6V8c0,0,0.7,0.5,0.7,0.5s1,0.6,2.5,1
	c1.1,0.3,2.5,0.3,2.5,0.3V5.8C20.3,5.8,19.3,5.7,18.2,5.1z"/>
</svg>
